<?xml version="1.0" encoding="UTF-8" standalone="no"?>
<!DOCTYPE svg PUBLIC "-//W3C//DTD SVG 1.1//EN" "http://www.w3.org/Graphics/SVG/1.1/DTD/svg11.dtd">
<svg width="100%" height="100%" viewBox="0 0 2100 2000" version="1.1" xmlns="http://www.w3.org/2000/svg" xmlns:xlink="http://www.w3.org/1999/xlink" xml:space="preserve" xmlns:serif="http://www.serif.com/" style="fill-rule:evenodd;clip-rule:evenodd;stroke-linejoin:round;stroke-miterlimit:2;">
    <g transform="matrix(1.14286,0,0,1.14286,-120,-125.714)">
        <rect x="0" y="0" width="2100" height="2000" style="fill:white;fill-rule:nonzero;"/>
        <path d="M761.164,1653.64C785.456,1641.52 812.193,1634.95 839.482,1634.38C844.84,1634.27 847.977,1638.37 848.254,1642.75C852.759,1642.85 857.265,1643.17 861.76,1643.72C867.134,1644.39 870.957,1648.74 870.727,1653.41C880.021,1653.83 889.298,1654.6 898.543,1655.65C891.688,1650.98 895.606,1639.24 904.007,1639.32C916.042,1639.42 927.74,1641.05 939.236,1643.59C938.396,1642.06 938.024,1640.26 938.299,1638.23C938.858,1634.09 942.681,1630.03 947.181,1630.39C985.638,1633.46 1022.21,1648.58 1051.25,1673.67C1072.7,1685.78 1074.27,1699.28 1050.44,1708.91C1032.52,1716.15 1006.22,1721.07 977.136,1724.46C983.867,1727.59 988.14,1729.72 989.195,1730.52C994.588,1734.57 993.026,1742.6 987.715,1746.04C987.08,1746.45 929.516,1742.09 869.746,1731.51C823.365,1733.01 788.196,1732.97 790.771,1735.2C785.984,1731.06 785.543,1722.89 791.444,1719.62C792.397,1719.09 795.851,1717.81 801.302,1715.97C780.967,1709.93 763.482,1702.9 751.956,1694.78C727.533,1677.57 729.968,1662.31 761.164,1653.64Z" style="fill:rgb(32,32,52);fill-rule:nonzero;"/>
        <path d="M885.766,1280.86C890.412,1278.27 895.479,1278.61 900.604,1278.33C907.127,1277.98 913.064,1274.77 919.59,1274.3C930.655,1273.51 939.386,1280.31 946.668,1287.84C950.184,1291.48 953.496,1295.29 957.211,1298.74C961.79,1302.98 966.824,1306.91 970.117,1312.31C972.802,1316.72 974.355,1321.96 973.778,1327.13C973.101,1333.2 968.185,1336.87 969.811,1342.98C970.971,1347.35 972.32,1351.45 970.46,1355.84C968.354,1360.82 964.099,1362.07 959.637,1364.24C950.55,1368.65 948.603,1381.51 936.827,1381.99C928.171,1382.35 919.643,1375.63 919.118,1366.74C918.896,1362.98 919.893,1358.95 921.647,1354.98C919.996,1353.36 918.529,1351.51 917.248,1349.85C912.757,1344.06 909.044,1337.81 906.083,1331.12C898.89,1324.54 892.255,1317.04 888.209,1308.76C887.692,1307.7 887.311,1306.63 887.061,1305.54C885.473,1310.06 877.643,1311.08 875.938,1305.21C873.241,1295.94 877.233,1285.63 885.766,1280.86Z" style="fill:rgb(120,54,41);fill-rule:nonzero;"/>
        <path d="M876.617,1301.07C877.228,1300.67 877.822,1300.27 878.396,1299.9C882.853,1297.07 887.133,1296.46 892.308,1296.11C901.245,1295.5 908.509,1297.86 914.292,1303.3C917.879,1307.03 920.688,1311.28 922.159,1316.82C923.865,1323.25 923.825,1329.88 924.247,1336.46C925.471,1339.45 929.014,1339.97 931.322,1342.9C932.851,1344.85 933.196,1347.2 933,1349.62C932.751,1352.68 927.668,1358.55 925.933,1361C924.813,1379.67 931.725,1411.01 931.725,1411.01L896.103,1431.26C896.103,1431.26 888.52,1394.44 886.752,1383.03C884.12,1382.99 879.89,1381.24 877.628,1379.95C869.219,1375.14 863.211,1353.45 864.119,1338C864.732,1327.57 870.539,1310.65 876.617,1301.07Z" style="fill:rgb(241,141,122);fill-rule:nonzero;"/>
        <path d="M890.632,1286.41C893.394,1280.67 901.098,1284.14 901.24,1289.46C902.977,1289.01 904.991,1289.35 906.777,1290.79C916.494,1298.62 926.374,1306.81 932.772,1317.72C935.166,1321.8 938.152,1327.13 937.132,1332.04C936.083,1337.09 931.21,1339.85 926.241,1338.78C920.835,1337.62 917.126,1332.63 913.734,1328.7C909.643,1323.97 904.796,1320.47 900.04,1316.47C891.06,1308.92 885.153,1297.81 890.632,1286.41Z" style="fill:rgb(120,54,41);fill-rule:nonzero;"/>
        <path d="M808.317,1579.31C809.449,1576.02 811.77,1574.09 814.442,1573.51C814.856,1569.2 815.163,1564.88 815.282,1560.56C815.727,1544.3 813.527,1528.13 812.681,1511.92C811.589,1491.04 813.446,1469.11 823.158,1450.72C818.949,1449.65 816.334,1448.21 817.733,1446.31C845.368,1408.71 888.185,1406.72 917.476,1408.89C946.488,1411.05 982.727,1419.92 995.909,1449.07C997.962,1453.61 995.173,1457.83 991.63,1459.31C992.85,1464.73 993.572,1470.3 994.208,1475.96C994.27,1476.51 994.324,1477.05 994.385,1477.59C997.437,1493.21 999.527,1509.01 1000.64,1524.9C1000.67,1525.14 1000.7,1525.38 1000.72,1525.62C1005.68,1523.99 1012.04,1526.49 1011.78,1533.19C1011.23,1547.13 1011.67,1561.09 1013.33,1574.94C1014.77,1586.84 1017.71,1598.88 1016.73,1610.93C1015.68,1623.87 1010.14,1632.32 1002.19,1642.11C994.138,1652.03 986.457,1659.63 973.944,1663.55C961.266,1667.52 947.844,1666.74 934.863,1665.02C920.981,1663.19 907.146,1660.94 893.299,1658.86C879.079,1656.73 864.854,1654.48 850.481,1653.67C843.97,1653.31 837.451,1653.25 830.938,1653.6C824.872,1653.93 818.821,1654.49 812.838,1653.03C778.786,1644.72 801.5,1599.11 808.317,1579.31Z" style="fill:rgb(153,161,223);fill-rule:nonzero;"/>
        <path d="M790.231,1720.08C792.903,1721.48 796.252,1727.53 797.7,1730.19C798.398,1731.47 798.543,1733.96 798.115,1735.13C794.917,1743.83 791.858,1750.91 788.636,1759.61C786.962,1764.12 784.966,1769.01 779.267,1768.57C773.503,1768.13 770.647,1762.57 770.457,1757.36C770.344,1754.29 771.028,1751.31 771.388,1748.28C772.02,1742.96 771.288,1737.72 770.455,1732.48C769.455,1726.19 770.271,1724.16 776.323,1721.31C782.116,1718.59 786.81,1718.28 790.231,1720.08Z" style="fill:rgb(222,202,183);fill-rule:nonzero;"/>
        <path d="M990.333,1731.14C987.494,1732.16 983.342,1737.69 981.542,1740.12C980.674,1741.3 980.187,1743.75 980.451,1744.96C982.419,1754.02 984.472,1761.46 986.466,1770.51C987.501,1775.21 988.806,1780.33 994.511,1780.68C1000.28,1781.04 1003.88,1775.92 1004.78,1770.79C1005.32,1767.77 1005.05,1764.72 1005.11,1761.67C1005.22,1756.32 1006.67,1751.22 1008.21,1746.14C1010.07,1740.05 1009.54,1737.93 1003.94,1734.28C998.576,1730.79 993.969,1729.83 990.333,1731.14Z" style="fill:rgb(222,202,183);fill-rule:nonzero;"/>
        <path d="M724.575,1587.07L1046.51,1608.38C1052.71,1608.79 1058.08,1604.09 1058.49,1597.89L1067.26,1465.31C1067.67,1459.11 1062.98,1453.75 1056.77,1453.34L734.839,1432.02C728.635,1431.61 723.273,1436.31 722.862,1442.51L714.086,1575.09C713.675,1581.29 718.372,1586.66 724.575,1587.07Z" style="fill:rgb(247,232,217);fill-rule:nonzero;"/>
        <path d="M1051.78,1549.37C1050.91,1548.48 1050.72,1547.01 1051.76,1545.79C1052.09,1545.39 1052.45,1545.02 1052.8,1544.65C1052.69,1544.36 1052.61,1544.06 1052.61,1543.72C1052.63,1541.83 1053.18,1540.33 1054.08,1539.11C1051.93,1539.45 1050.46,1536.51 1051.97,1534.65C1054.13,1531.97 1056.81,1529.87 1059.99,1528.53C1062.24,1527.58 1065.94,1526.05 1067.91,1528.3C1069.11,1529.69 1068.88,1531.74 1068.24,1533.53C1069.69,1533.75 1070.88,1534.54 1071.27,1536.42C1071.83,1539.09 1070.73,1541.4 1068.83,1543.33C1070.12,1544.83 1070.11,1547 1068.91,1548.64C1068.24,1549.55 1067.35,1550.26 1066.34,1550.81C1066.35,1550.91 1066.37,1551 1066.38,1551.1C1067.7,1552.12 1068.31,1554.11 1067.13,1555.78C1065.13,1558.62 1060.08,1557.68 1057.18,1557.22C1055.56,1556.96 1053.71,1556.57 1052.75,1555.09C1052.07,1554.04 1052.11,1552.77 1052.66,1551.74C1051.82,1551.23 1051.58,1550.28 1051.78,1549.37Z" style="fill:rgb(241,141,122);fill-rule:nonzero;"/>
        <path d="M713.329,1508.19C713.815,1507.26 714.698,1506.71 715.72,1506.4C715.265,1504.85 715.51,1503.24 717.062,1502.05C715.202,1500.38 713.054,1498.11 713.433,1495.57C713.728,1493.6 715.1,1492.52 716.747,1492.3C715.593,1489.77 715.324,1486.87 718.02,1485.31C720.083,1484.11 721.984,1485.12 723.512,1486.79C726.338,1488.74 729.173,1492.3 728.274,1495.82C728.025,1496.8 727.423,1497.58 726.641,1498.08C727.768,1499.62 728.393,1501.48 728.442,1503.55C728.467,1504.56 727.812,1505.46 726.927,1505.88C727.198,1506.63 727.36,1507.38 727.375,1508.13C727.392,1508.95 727.229,1509.61 726.947,1510.13C727.617,1511.01 727.856,1512.09 727.411,1513.04C727.489,1513.48 727.49,1513.96 727.396,1514.44C727.169,1515.62 725.987,1516.24 724.913,1516.33C722.217,1516.57 719.444,1515.95 717.111,1514.56C715.077,1513.36 711.921,1510.9 713.329,1508.19Z" style="fill:rgb(241,141,122);fill-rule:nonzero;"/>
        <path d="M962.083,1574.67C964.817,1574.67 967.323,1573.27 968.786,1570.93C979.976,1553.02 987.893,1533.54 992.318,1513.04C992.98,1509.98 991.918,1507.85 990.91,1506.6C989.317,1504.63 986.705,1503.4 984.094,1503.4C982.48,1503.4 978.61,1503.93 977.55,1508.82C974.433,1523.19 969.531,1537.03 962.979,1549.94L961.937,1552L950.813,1533.75C950.172,1532.7 949.537,1531.61 948.893,1530.5C944.809,1523.46 940.584,1516.18 932.43,1515.22C931.855,1515.16 931.259,1515.12 930.655,1515.12C924.093,1515.12 916.885,1519.1 910.525,1522.62C908.402,1523.79 906.396,1524.9 904.481,1525.83L898.053,1528.95C889.649,1533.03 881.246,1537.1 872.86,1541.21C868.532,1543.33 868.861,1547 869.204,1548.48C869.954,1551.71 873.016,1555.15 877.209,1555.15C878.386,1555.15 879.575,1554.87 880.741,1554.31C885.922,1551.81 891.254,1549.34 896.41,1546.95C907.287,1541.9 918.534,1536.69 929.135,1530.93C929.216,1530.89 929.282,1530.84 929.335,1530.8L930.561,1529.89L931.251,1531.25C932.299,1532.54 933.127,1534.02 933.929,1535.46C934.276,1536.08 934.616,1536.69 934.961,1537.25L955.487,1570.94C956.911,1573.28 959.376,1574.67 962.083,1574.67Z" style="fill:rgb(191,150,140);fill-rule:nonzero;"/>
        <path d="M984.094,1502.12C980.597,1502.12 977.268,1504.06 976.293,1508.55C973.192,1522.85 968.378,1536.46 961.834,1549.36C958.526,1543.94 955.218,1538.51 951.91,1533.08C947.167,1525.3 942.735,1515.14 932.58,1513.95C931.942,1513.87 931.3,1513.84 930.655,1513.84C921.548,1513.84 911.672,1520.91 903.92,1524.67C893.374,1529.79 882.821,1534.9 872.293,1540.06C863.362,1544.44 868.907,1556.44 877.21,1556.44C878.519,1556.44 879.897,1556.14 881.298,1555.47C897.385,1547.72 914.069,1540.57 929.748,1532.06C929.899,1531.98 930.011,1531.9 930.105,1531.83C930.149,1531.92 930.206,1532.01 930.296,1532.12C931.663,1533.8 932.746,1536.09 933.863,1537.92C936.001,1541.43 938.14,1544.94 940.278,1548.45C944.982,1556.17 949.686,1563.89 954.39,1571.61C956.164,1574.52 959.119,1575.96 962.083,1575.96C965.075,1575.96 968.075,1574.49 969.877,1571.61C981.07,1553.69 989.117,1533.97 993.574,1513.31C995.036,1506.54 989.373,1502.12 984.094,1502.12ZM984.094,1504.69C986.326,1504.69 988.555,1505.73 989.91,1507.41C991.102,1508.88 991.5,1510.74 991.062,1512.77C986.669,1533.12 978.808,1552.46 967.697,1570.25C966.469,1572.21 964.371,1573.39 962.083,1573.39C959.795,1573.39 957.791,1572.25 956.584,1570.27L942.473,1547.11L936.65,1537.55L936.059,1536.58C935.722,1536.03 935.389,1535.43 935.05,1534.83C934.238,1533.38 933.399,1531.88 932.351,1530.57L931.02,1527.94L928.565,1529.77C917.958,1535.54 906.73,1540.74 895.873,1545.78C890.712,1548.17 885.375,1550.65 880.184,1553.15C879.193,1553.63 878.192,1553.87 877.21,1553.87C873.807,1553.87 871.104,1550.98 870.456,1548.19C870.117,1546.72 870.051,1544.02 873.425,1542.37C881.823,1538.25 890.38,1534.1 898.655,1530.09L905.043,1526.99C906.988,1526.04 909.009,1524.92 911.149,1523.74C917.372,1520.3 924.424,1516.41 930.655,1516.41C931.208,1516.41 931.755,1516.44 932.279,1516.5C939.796,1517.38 943.855,1524.38 947.781,1531.14C948.43,1532.26 949.069,1533.36 949.715,1534.42L959.639,1550.7L962.041,1554.64L964.127,1550.53C970.727,1537.51 975.666,1523.57 978.806,1509.09C979.638,1505.26 982.477,1504.69 984.094,1504.69Z" style="fill:rgb(247,232,217);fill-rule:nonzero;"/>
        <path d="M826.009,1564.01C828.664,1564.01 831.253,1562.79 832.768,1560.82C834.109,1559.08 834.49,1556.91 833.866,1554.55C826.241,1525.71 810.575,1500.06 788.562,1480.36C787.864,1479.73 787.102,1479.24 786.297,1478.9L785.241,1478.45L785.572,1477.34C786.358,1474.73 785.904,1471.84 784.387,1469.8C783.055,1468 781.035,1467.06 778.549,1467.06C774.845,1467.06 772.156,1469.2 771.359,1472.8C770.641,1476.04 771.734,1480.16 775.214,1481.79L776.35,1482.32L775.849,1483.46C775.156,1485.05 774.473,1488.15 777.687,1491.03C797.968,1509.2 812.306,1532.58 819.15,1558.64C820.424,1563.49 824.371,1564.01 826.009,1564.01Z" style="fill:rgb(191,150,140);fill-rule:nonzero;"/>
        <path d="M778.549,1465.77C768.438,1465.77 767.16,1479.44 774.67,1482.95C773.422,1485.81 773.739,1489.22 776.83,1491.99C796.852,1509.92 811.075,1532.95 817.908,1558.97C819.068,1563.39 822.492,1565.3 826.009,1565.3C831.335,1565.3 836.878,1560.92 835.109,1554.23C827.488,1525.4 811.647,1499.29 789.418,1479.4C788.578,1478.65 787.698,1478.1 786.803,1477.71C788.374,1472.49 785.624,1465.77 778.549,1465.77ZM778.549,1468.34C780.642,1468.34 782.259,1469.09 783.355,1470.56C784.616,1472.26 785.002,1474.77 784.341,1476.97L783.68,1479.17L785.791,1480.08C786.467,1480.37 787.111,1480.78 787.704,1481.31C809.529,1500.85 825.063,1526.29 832.624,1554.88C833.149,1556.87 832.854,1558.6 831.749,1560.04C830.492,1561.67 828.239,1562.73 826.009,1562.73C824.669,1562.73 821.44,1562.3 820.394,1558.31C813.484,1532.01 799.013,1508.41 778.545,1490.07C776.063,1487.85 776.35,1485.53 777.027,1483.98L778.027,1481.68L775.757,1480.62C772.892,1479.28 772.006,1475.81 772.613,1473.08C772.929,1471.65 774.14,1468.34 778.549,1468.34Z" style="fill:rgb(247,232,217);fill-rule:nonzero;"/>
        <path d="M579.024,773.595C579.21,772.682 579.564,771.857 580.035,771.121C579.928,764.649 587.812,758.921 592.745,765.111C595.699,768.817 599.394,770.635 601.316,775.349C603.071,779.65 603.128,784.218 604.124,788.7C605.189,793.491 608.121,794.262 612.235,796.249C616.777,798.443 620.655,801.172 622.903,805.822C625.315,810.81 623.024,817.986 626.556,822.016C630.178,826.15 634.676,828.322 636.777,833.821C638.703,838.862 637.896,844.216 634.513,848.43C631.521,852.156 627.019,853.791 623.548,856.888C623.506,856.925 623.46,856.961 623.417,856.998C623.39,857.022 623.361,857.043 623.334,857.068C623.333,857.067 623.333,857.066 623.333,857.066C622.84,857.48 622.328,857.887 621.773,858.273C614.581,863.287 599.527,840.447 595.522,834.685C594.232,832.829 592.953,830.966 591.666,829.107C590.118,828.938 588.612,828.231 587.382,826.796C581.177,819.549 576.687,811.606 573.862,802.482C572.7,798.728 574.275,795.822 576.822,794.278C575.692,790.444 574.563,786.609 573.433,782.774C571.903,777.582 575.112,774.263 579.024,773.595Z" style="fill:rgb(78,48,42);fill-rule:nonzero;"/>
        <path d="M615.518,1069.91C644.938,1183.31 679.083,1337.03 680.82,1346.03C682.099,1352.66 675.555,1357.56 669.307,1356.55C667.978,1356.34 615.579,1218.09 589.59,1158.15C588.305,1120.83 613.22,1061.05 615.518,1069.91Z" style="fill:rgb(241,141,122);fill-rule:nonzero;"/>
        <path d="M681.148,1346.46C678.552,1344.93 671.642,1345.26 668.62,1345.43C667.161,1345.51 664.965,1346.7 664.199,1347.68C658.48,1354.98 654.067,1361.3 648.368,1368.62C645.408,1372.42 642.305,1376.68 645.675,1381.3C649.083,1385.97 655.316,1385.47 659.842,1382.9C662.513,1381.38 664.689,1379.23 667.078,1377.33C671.265,1373.99 676.109,1371.86 681.006,1369.81C686.881,1367.35 688.178,1365.59 687.413,1358.94C686.68,1352.59 684.474,1348.43 681.148,1346.46Z" style="fill:rgb(78,48,42);fill-rule:nonzero;"/>
        <path d="M580.09,1076.19C584.149,1193.28 584.05,1350.75 583.79,1359.91C583.597,1366.66 576.142,1370.02 570.263,1367.68C569.013,1367.18 547.928,1220.85 535.596,1156.69C542.457,1119.98 579.773,1067.05 580.09,1076.19Z" style="fill:rgb(241,141,122);fill-rule:nonzero;"/>
        <path d="M387.425,704.559C387.542,703.921 387.901,703.47 388.361,703.165C388.835,700.654 390.106,698.28 392.543,696.148C392.996,692.69 394.643,688.609 398.812,690.412C401.198,691.443 401.95,694.785 402.82,696.88C404.616,701.207 406.412,705.533 408.208,709.859C408.278,710.029 408.351,710.2 408.422,710.37C408.674,708.738 414.127,700.19 415.006,703.381C415.152,703.913 415.763,707.384 415.781,707.644C417.459,715.443 417.509,723.363 413.263,730.495C428.917,756.054 449.385,778.62 468.462,801.639C479.72,808.172 491.238,814.28 503.444,818.795C520.422,825.076 550.913,827.446 557.544,839.787C562.532,849.07 553.67,860.274 543.613,863.13C529.425,867.158 513.956,859.824 501.311,854.057C486.93,847.497 455.692,827.446 451.028,822.499C437.781,808.448 425.651,792.273 416.604,775.311C412.16,766.98 400.636,742.174 400.189,738.213C389.886,730.2 385.042,717.545 387.425,704.559Z" style="fill:rgb(241,141,122);fill-rule:nonzero;"/>
        <path d="M535.146,736.667C535.266,722.832 541.634,713.332 551.58,706.572C562.013,699.48 573.058,699.403 585.192,702.342C596.441,705.066 604.979,712.527 608.335,723.709C612.127,736.344 610.723,746.458 605.906,758.142C605.898,758.139 605.891,758.136 605.884,758.133C605.573,758.908 591.606,782.542 576.001,785.404C567.339,786.993 561.945,784.557 565.576,777.013C566.546,774.999 567.667,773.078 568.855,771.2C567.002,770.431 565.242,769.315 563.644,767.776C556.831,761.214 555.778,749.366 556.372,739.731C555.847,741.438 555.362,743.155 554.902,744.846C551.78,756.343 534.477,752.093 536.04,741.079C535.463,739.843 535.131,738.377 535.146,736.667Z" style="fill:rgb(78,48,42);fill-rule:nonzero;"/>
        <path d="M584.016,1360.41C581.815,1358.34 574.997,1357.17 572.01,1356.67C570.569,1356.44 568.168,1357.12 567.208,1357.91C560.039,1363.79 554.355,1369 547.203,1374.9C543.487,1377.97 539.531,1381.46 541.816,1386.7C544.127,1391.99 550.319,1392.86 555.297,1391.33C558.234,1390.43 560.826,1388.81 563.571,1387.47C568.383,1385.13 573.575,1384.09 578.801,1383.16C585.07,1382.04 586.718,1380.6 587.416,1373.95C588.084,1367.58 586.833,1363.05 584.016,1360.41Z" style="fill:rgb(78,48,42);fill-rule:nonzero;"/>
        <path d="M444.392,755.258L497.342,536.807C498.807,530.764 495.096,524.678 489.053,523.213L394.646,500.33C388.604,498.865 382.518,502.576 381.053,508.619L328.102,727.071C326.638,733.113 330.349,739.199 336.391,740.664L430.798,763.547C436.841,765.012 442.927,761.301 444.392,755.258Z" style="fill:rgb(247,232,217);fill-rule:nonzero;"/>
        <rect x="547.5" y="757.154" width="34.704" height="57.174" style="fill:rgb(241,141,122);fill-rule:nonzero;"/>
        <path d="M494.07,1212.82C494.84,1191.7 499.679,1170.93 504.219,1150.37C508.737,1129.92 512.19,1109.51 513.939,1088.62C516.952,1052.64 524.521,1015.65 529.855,979.961C517.835,971.603 521.445,963.973 521.063,949.756C520.521,929.561 512.065,898.022 519.778,857.535C521.708,847.405 527.105,833.291 532.631,824.438C537.987,815.858 543.644,811.539 562.709,810.896C583.719,810.188 591.323,814.502 600.753,825.402C618.613,846.049 608.701,855.933 629.994,935.618C633.8,949.864 628.309,954.151 620.997,963.895C624.254,973.29 635.262,986.066 639.566,1003.82C644.367,1023.63 648.51,1043.58 652.109,1063.62C659.223,1103.25 665.585,1144.22 683.003,1180.91C692.978,1201.91 705.482,1232.28 691.35,1244.15C681.159,1252.71 650.295,1248.24 637.098,1249.16C622.07,1250.21 607.447,1254.38 592.459,1255.9C588.658,1256.28 584.996,1256.56 581.476,1256.67C577.725,1258 573.806,1258.87 569.82,1259.27C560.971,1260.16 552.553,1258.09 544.508,1254.53C536.872,1251.16 529.763,1246.26 521.617,1244.16C513.12,1241.97 504.808,1245.31 499.034,1236.74C494.342,1229.78 493.774,1220.97 494.07,1212.82Z" style="fill:rgb(201,112,44);fill-rule:nonzero;"/>
        <path d="M534.777,729.391C535.389,727.469 538.629,723.444 539.295,722.847C543.232,719.32 548.822,718.13 554.608,718.19C556.235,720.117 558.207,721.736 560.424,723.54C564.848,727.137 568.534,731.436 571.965,735.969C575.261,740.323 578.396,744.807 581.943,748.966C583.494,750.786 585.123,752.997 587.137,754.427C587.835,755.471 588.947,756.302 590.483,756.774C590.996,756.932 591.567,756.951 592.136,756.892C592.531,756.974 592.87,757.059 593.021,757.146C594.023,757.728 594.797,758.619 595.242,759.674C596.268,762.111 595.346,765.34 594.412,767.644C592.68,771.912 589.564,775.031 585.89,777.459C579.861,785.428 565.04,798.894 551.28,795.617C535.108,791.764 531.206,770.424 530.091,759.697C529.027,749.452 531.725,738.975 534.777,729.391Z" style="fill:rgb(241,141,122);fill-rule:nonzero;"/>
        <path d="M430.08,693.133C430.197,692.496 430.556,692.044 431.016,691.739C431.49,689.229 432.762,686.855 435.199,684.723C435.651,681.265 437.298,677.184 441.467,678.986C443.854,680.018 444.605,683.36 445.476,685.455C447.271,689.781 449.067,694.107 450.863,698.434C450.934,698.604 451.006,698.774 451.077,698.944C451.33,697.313 456.783,688.765 457.661,691.956C457.808,692.488 458.418,695.959 458.436,696.218C460.114,704.018 460.165,711.938 455.918,719.07C471.573,744.628 487.527,780.671 506.604,803.69C517.862,810.224 598.399,824.941 605.03,837.283C610.019,846.566 601.157,857.77 591.1,860.625C576.911,864.654 560.525,860.462 547.305,856.174C531.453,851.033 489.516,834.364 480.469,817.401C476.025,809.07 443.292,730.749 442.845,726.788C432.542,718.774 427.697,706.12 430.08,693.133Z" style="fill:rgb(241,141,122);fill-rule:nonzero;"/>
        <path d="M532.129,735.236C532.34,735.225 539.196,735.436 541.944,736.645C544.705,737.86 546.743,739.653 547.814,742.179C550.375,741.582 553.017,741.934 555.572,742.791C556.669,740.003 558.848,738.036 561.841,736.719C564.732,735.447 571.947,735.225 572.168,735.236C577.129,735.497 578.868,739.626 578.85,744.13C583.521,743.629 588.259,743.353 592.848,742.527C594.465,742.236 595.16,744.712 593.531,745.006C588.636,745.887 583.609,746.139 578.655,746.705C578.292,749.298 577.45,751.798 576.384,753.543C574.519,756.6 571.344,757.672 567.928,757.985C564.528,758.296 559.083,758.891 556.7,755.759C554.663,753.083 554.429,748.491 554.909,745.25C552.807,744.515 550.632,744.18 548.518,744.655L548.522,744.675C548.993,747.758 548.78,752.174 546.829,754.739C544.564,757.715 539.39,757.15 536.159,756.854C532.913,756.556 529.896,755.538 528.123,752.633C525.012,747.535 523.818,735.673 532.129,735.236Z" style="fill:rgb(23,26,41);fill-rule:nonzero;"/>
        <path d="M405.146,550.036C422.276,549.849 439.429,549.858 456.559,550.009C465.667,550.089 465.683,564.085 456.559,564.166C439.429,564.316 422.276,564.325 405.146,564.139C396.072,564.04 396.058,550.135 405.146,550.036Z" style="fill:rgb(191,150,140);fill-rule:nonzero;"/>
        <path d="M368.021,685.521C385.151,685.334 402.304,685.343 419.434,685.494C428.542,685.574 428.558,699.57 419.434,699.651C402.304,699.802 385.151,699.811 368.021,699.624C358.948,699.525 358.933,685.62 368.021,685.521Z" style="fill:rgb(191,150,140);fill-rule:nonzero;"/>
        <path d="M436.801,630.447C421.689,622.38 406.466,614.475 391.198,606.708C383.079,602.577 376.61,614.988 384.667,619.268C399.796,627.304 415.012,635.224 430.296,642.96C438.392,647.058 444.82,634.728 436.801,630.447Z" style="fill:rgb(191,150,140);fill-rule:nonzero;"/>
        <path d="M1199.13,1097.57C1200.07,1079.82 1202.36,1062.2 1204.22,1044.54C1204.38,1027.93 1205.36,1011.35 1207.79,994.824C1208.1,992.722 1209.48,991.732 1211.04,991.594C1212.66,988.717 1217.08,987.303 1218.85,991.088C1219.55,992.578 1220.07,994.103 1220.47,995.651C1223.08,993.444 1227.91,994.428 1227.91,998.868C1227.89,1024.88 1227.78,1050.92 1225.44,1076.81C1225.69,1077.38 1225.82,1078.06 1225.78,1078.84C1223.76,1112.32 1197.72,1123.94 1199.13,1097.57Z" style="fill:rgb(241,141,122);fill-rule:nonzero;"/>
        <path d="M1362.16,944.304C1364.57,941.349 1366.98,938.394 1369.4,935.438C1369.71,935.063 1370.03,934.745 1370.35,934.463C1371.38,933.209 1372.41,931.95 1373.43,930.69C1368.89,929.949 1365,925.051 1368.18,920.292C1386.54,892.739 1406.14,866.044 1426.83,840.2C1427.74,835.103 1429.06,830.064 1430.42,825.01C1433.2,814.726 1435.84,804.408 1438.29,794.041C1443.19,773.306 1447.38,752.415 1450.93,731.406C1450.99,731.057 1451.08,730.739 1451.19,730.45C1449,722.534 1447.14,711.599 1447.69,704.461C1447.72,704.101 1451.8,705.781 1454.92,707.068C1461.27,709.69 1478.13,700.92 1479.82,708.639C1481.58,716.66 1473.17,728.171 1468.47,733.806C1468.44,733.977 1468.4,734.147 1468.37,734.317C1468.39,734.572 1468.41,734.834 1468.4,735.116C1467.19,760.406 1466.72,785.868 1464.42,811.088C1463.44,821.94 1461.9,832.828 1458.82,843.305C1456.45,851.389 1452.48,859.608 1448.02,867.019C1427.77,900.677 1402.79,930.661 1380.46,962.729C1375.54,969.792 1364.2,963.723 1367.64,956.657C1362.52,956.78 1357.79,949.643 1362.16,944.304Z" style="fill:rgb(241,141,122);fill-rule:nonzero;"/>
        <path d="M1257.09,809.963C1260.12,798.123 1268.74,787.8 1281.01,785.063C1294.16,782.132 1310.68,784.812 1321.55,792.918C1331.72,800.497 1337.01,813.506 1334.53,826.087C1333.24,832.633 1329.27,837.294 1325.02,842.172C1318.92,849.162 1313.4,856.516 1308.37,864.303C1305.97,868.016 1299.85,865.722 1301.08,861.232C1301.15,860.996 1301.21,860.76 1301.28,860.524C1301.3,860.151 1301.36,859.764 1301.51,859.348C1301.64,858.995 1301.77,858.642 1301.89,858.289C1302.41,856.88 1303.41,856.064 1304.54,855.727C1305.04,854.996 1305.55,854.263 1306.06,853.542C1302.97,854.276 1299.4,851.013 1301.55,847.747C1302.1,846.899 1302.7,846.075 1303.31,845.26C1302.83,844.794 1302.46,844.214 1302.28,843.546C1300.76,838.035 1303.65,832.433 1304.55,826.938C1305.07,823.805 1305.58,820.624 1305.72,817.444C1303.59,813.785 1300.19,810.777 1295.75,809.103C1290.97,809.072 1285.61,808.441 1283.57,804.503C1283.39,804.154 1283.28,803.765 1283.2,803.367C1281.78,803.377 1280.55,803.428 1279.7,803.473C1279.11,803.504 1278.52,803.353 1277.97,803.071C1272.6,805.682 1267.74,809.405 1263.77,813.854C1261.02,816.938 1256.14,813.659 1257.09,809.963Z" style="fill:rgb(23,26,41);fill-rule:nonzero;"/>
        <path d="M1338,1126.35C1337.44,1124.56 1337.51,1122.53 1338.06,1120.58C1338.64,1118.57 1339.21,1116.56 1339.78,1114.54C1340.81,1110.92 1343.61,1109.63 1346.5,1109.92C1349.18,1102.21 1354.68,1123.34 1353.95,1132.46C1344.64,1249.25 1323.61,1502.92 1322.31,1511.99C1321.35,1518.67 1313.56,1521.17 1307.98,1518.17C1306.8,1517.53 1274.6,1254.42 1269.67,1189.27C1280.67,1153.58 1317.44,1138.62 1338,1126.35Z" style="fill:rgb(76,72,153);fill-rule:nonzero;"/>
        <path d="M1260.57,801.744C1261.18,801.344 1261.77,800.941 1262.35,800.577C1266.8,797.742 1271.08,797.139 1276.26,796.787C1285.2,796.178 1292.46,798.53 1298.24,803.978C1301.83,807.707 1304.64,811.949 1306.11,817.494C1307.82,823.924 1307.78,830.555 1308.2,837.138C1309.42,840.125 1312.97,840.648 1315.27,843.578C1316.8,845.52 1317.15,847.878 1316.95,850.295C1316.7,853.35 1311.62,859.228 1309.88,861.673C1308.76,880.338 1315.68,911.682 1315.68,911.682L1280.06,931.937C1280.06,931.937 1272.47,895.114 1270.71,883.708C1268.07,883.664 1263.84,881.913 1261.58,880.62C1253.17,875.812 1247.16,854.125 1248.07,838.674C1248.68,828.24 1254.49,811.322 1260.57,801.744Z" style="fill:rgb(241,141,122);fill-rule:nonzero;"/>
        <path d="M1307.79,673.998L1578.29,734.8C1584.36,736.163 1590.38,732.351 1591.75,726.285L1618.62,606.738C1619.98,600.672 1616.17,594.649 1610.1,593.285L1339.6,532.483C1333.54,531.12 1327.51,534.932 1326.15,540.998L1299.28,660.544C1297.92,666.611 1301.73,672.634 1307.79,673.998Z" style="fill:rgb(247,232,217);fill-rule:nonzero;"/>
        <path d="M1247.64,858.686C1248.08,857.032 1250,856.353 1251.44,857.141C1258.83,861.183 1268.76,859.279 1276.52,857.159C1284.24,855.05 1289.49,851.398 1293.34,844.452C1294.52,842.307 1295.99,838.41 1299.29,839.433C1299.33,839.444 1300.57,839.722 1301.07,840.358C1308.34,849.558 1299.96,863.214 1296.13,872.357C1291.86,882.569 1287.38,892.281 1276.26,896.201C1268.27,899.019 1255.79,899.092 1249.28,892.788C1240.65,884.437 1245.05,868.621 1247.64,858.686Z" style="fill:rgb(23,26,41);fill-rule:nonzero;"/>
        <path d="M1219.14,802.468C1227.38,804.023 1244.79,807.935 1253.03,809.521C1252.22,796.449 1263.26,782.081 1275.85,780.087C1284.53,778.714 1294.16,781.204 1302.79,782.284C1310.89,783.299 1319.44,783.95 1326.75,787.958C1339.93,795.19 1344.48,812.233 1337.17,825.217C1333.9,838.266 1314.13,832.24 1304.15,830.94C1300.2,830.426 1227.85,813.379 1217.06,811.229C1211.38,810.096 1213.45,801.394 1219.14,802.468Z" style="fill:rgb(201,112,44);fill-rule:nonzero;"/>
        <path d="M1451.97,695.432C1452.45,692.646 1453.29,686.85 1457.11,686.576C1460.73,686.317 1462.38,690.841 1462.87,693.642C1463.99,700.101 1463.58,705.464 1466.94,711.446C1468.55,714.336 1464.12,716.931 1462.5,714.042C1461.83,712.855 1461.25,711.643 1460.71,710.414C1461.01,712.406 1461.5,714.38 1462.24,716.33C1463.43,719.421 1458.46,720.759 1457.29,717.696C1457,716.953 1456.76,716.205 1456.54,715.456C1455.13,716.491 1452.71,715.767 1452.41,713.449C1451.64,707.485 1450.94,701.412 1451.97,695.432Z" style="fill:rgb(241,141,122);fill-rule:nonzero;"/>
        <path d="M1204.02,1001.56C1203.83,995.849 1207.56,988.855 1209.46,983.589C1211.88,976.835 1216.11,927.924 1247.98,912.928C1248.79,912.548 1268.18,907.083 1272.63,905.573C1273.28,905.353 1274.04,905.137 1274.87,904.926C1275.12,906.724 1276.06,908.467 1277.6,909.6C1278.4,910.241 1279.29,910.625 1280.21,910.783C1285.62,912.458 1291.22,912.92 1296.85,912.109C1301.51,911.438 1308.75,909.825 1311.93,905.981C1313.2,904.44 1313.79,902.702 1313.69,900.986C1314.67,901.013 1315.5,901.066 1316.14,901.146C1329.23,902.797 1356.42,901.789 1378.36,885.514C1384.11,881.25 1398.52,864.315 1404.3,866.818C1414.55,871.254 1411.82,902.763 1410.41,913.862C1409.68,919.575 1408.78,924.197 1410.61,929.839C1411.98,934.015 1413.49,937.969 1413.24,942.442C1412.68,952.088 1402.86,959.07 1396.68,965.497C1388.62,973.879 1380.56,982.261 1372.5,990.643C1372.46,990.691 1372.41,990.73 1372.36,990.776C1371.81,996.445 1371.21,1002.1 1370.74,1007.72C1369.88,1018.17 1354.98,1131.85 1348.19,1167.79C1347.61,1170.87 1344.27,1172.96 1341.33,1173.02C1306.08,1173.7 1270.53,1170.98 1235.53,1166.93C1229.33,1166.21 1222.82,1164.59 1219.47,1158.75C1215.71,1152.2 1217.89,1142.6 1218.34,1135.51C1219.43,1118.01 1220.55,1100.51 1221.24,1082.99C1221.95,1065.27 1223.01,1038.57 1224.92,1012.29C1215.79,1011.93 1204.31,1010.1 1204.02,1001.56Z" style="fill:rgb(76,72,153);fill-rule:nonzero;"/>
        <path d="M1322.31,1513.29C1320.05,1511.29 1313.2,1510.31 1310.2,1509.91C1308.75,1509.71 1306.37,1510.46 1305.44,1511.28C1298.44,1517.36 1292.91,1522.74 1285.93,1528.85C1282.31,1532.02 1278.46,1535.62 1280.89,1540.79C1283.36,1546.02 1289.57,1546.71 1294.5,1545.04C1297.41,1544.05 1299.96,1542.35 1302.66,1540.93C1307.4,1538.45 1312.56,1537.27 1317.76,1536.18C1323.99,1534.88 1325.6,1533.39 1326.1,1526.73C1326.58,1520.34 1325.2,1515.85 1322.31,1513.29Z" style="fill:rgb(32,32,52);fill-rule:nonzero;"/>
        <path d="M1226.77,1490.78C1224.51,1488.78 1217.66,1487.81 1214.66,1487.4C1213.21,1487.2 1210.83,1487.96 1209.89,1488.77C1202.9,1494.86 1197.37,1500.23 1190.39,1506.34C1186.77,1509.51 1182.91,1513.12 1185.35,1518.29C1187.82,1523.51 1194.03,1524.2 1198.96,1522.53C1201.87,1521.54 1204.41,1519.84 1207.12,1518.43C1211.86,1515.95 1217.02,1514.76 1222.22,1513.68C1228.45,1512.37 1230.06,1510.89 1230.56,1504.22C1231.04,1497.84 1229.66,1493.34 1226.77,1490.78Z" style="fill:rgb(32,32,52);fill-rule:nonzero;"/>
        <path d="M1194.39,1311.45C1201.53,1254.18 1209.39,1198.16 1231.75,1144.93C1234.22,1139.05 1249.36,1139.26 1251.12,1143.64C1252.81,1143.01 1254.74,1143.12 1256.37,1143.81C1256.9,1143.74 1257.44,1143.69 1258,1143.7C1259.84,1143.73 1261.81,1144.08 1263.81,1144.67C1267.34,1142.61 1272.41,1144.67 1273.32,1149.1C1276.44,1151.1 1279.2,1153.47 1281.1,1155.86C1283.32,1158.65 1284.53,1161.33 1285.07,1164C1289.74,1161.73 1298.47,1186.58 1296.05,1192.48C1283.4,1223.33 1247,1310.21 1240.75,1325.43C1236.62,1335.47 1232.16,1383.73 1232,1406.49C1231.9,1420.23 1229.17,1475.57 1225.57,1489.07C1223.98,1495.05 1209.41,1497.9 1207.99,1491.59C1200.34,1457.44 1199.25,1422.19 1197.01,1387.38C1195.91,1370.41 1194.54,1353.43 1193.8,1336.44C1193.46,1328.66 1194.3,1312.17 1194.39,1311.45Z" style="fill:rgb(76,72,153);fill-rule:nonzero;"/>
        <path d="M1323.89,597.308C1342.77,587.065 1364.61,576.784 1386.17,585.272C1400.34,590.857 1411.99,602.81 1417.51,617.063C1434.39,608.582 1453.11,602.03 1471.61,609.318C1485.57,614.816 1497.08,626.485 1502.71,640.447C1519.71,631.846 1538.62,625.095 1557.3,632.454C1574.19,639.108 1587.53,654.794 1591.14,672.656C1592.92,681.417 1579.92,685.199 1577.63,676.383C1574.09,662.849 1565.48,650.446 1551.88,645.486C1535.16,639.38 1518.23,648.168 1503.61,655.996C1500.21,659.414 1493.53,659.335 1491.94,653.248C1488.41,639.713 1479.79,627.311 1466.2,622.35C1448.92,616.046 1431.44,625.62 1416.51,633.621C1410.91,636.62 1405.75,631.635 1405.82,626.848C1401.93,614.248 1393.55,602.976 1380.75,598.304C1363.48,592 1345.99,601.574 1331.06,609.574C1323.01,613.889 1315.84,601.677 1323.89,597.308Z" style="fill:rgb(191,150,140);fill-rule:nonzero;"/>
        <path d="M1751.81,1494.61C1747.83,1484.18 1739.97,1481.62 1731.02,1482.24C1729.2,1480.16 1726.73,1478.56 1723.9,1477.65C1717.56,1475.6 1710.38,1476.58 1703.84,1476.52C1694.9,1476.44 1685.97,1476.13 1677.05,1475.58C1642.98,1473.47 1609.19,1467.76 1576.29,1458.69C1564.68,1455.49 1547.85,1447.45 1536.42,1454.78C1535.79,1451.11 1534.89,1447.45 1533.67,1443.82C1530,1432.9 1512.63,1437.57 1516.31,1448.6C1524.14,1472.03 1516.27,1495.88 1511.71,1519.11C1508.05,1537.72 1503.7,1566.95 1523.47,1578.62C1533.02,1584.25 1547.06,1580.96 1557.5,1580.39C1569.89,1579.73 1582.29,1579.06 1594.68,1578.39C1619.7,1577.04 1645.07,1576.78 1669.98,1574.09C1691.79,1571.73 1713.41,1561.92 1730.83,1548.64C1746.91,1536.38 1759.68,1515.21 1751.81,1494.61Z" style="fill:rgb(32,32,52);fill-rule:nonzero;"/>
        <path d="M1598.43,1552.91C1598.22,1552.94 1598.01,1552.96 1597.79,1552.99C1598.38,1552.42 1598.99,1551.88 1599.59,1551.33C1599.31,1551.82 1599.06,1552.26 1598.83,1552.65C1598.7,1552.74 1598.56,1552.82 1598.43,1552.91ZM1727.34,1548.87C1733.28,1542.83 1725.66,1534.55 1718.63,1537.74C1717.13,1538.42 1715.65,1539.14 1714.18,1539.87C1715.33,1534.59 1709.24,1528.89 1703.54,1532.11C1699.32,1534.49 1695.15,1536.95 1691.02,1539.48C1689.99,1538.88 1688.82,1538.46 1687.62,1538.28C1688.81,1532.84 1683.42,1527.73 1677.25,1530.55C1668.94,1534.34 1660.84,1538.55 1652.95,1543.12C1650.81,1541.53 1648.39,1541.14 1645.91,1541.46C1645.48,1538.83 1643.27,1536.44 1640.74,1535.78C1632.1,1533.52 1624.64,1536.97 1617.82,1542.05C1618.02,1537.84 1616.84,1533.91 1613.39,1530.75C1611.09,1528.63 1607.53,1527.94 1604.75,1529.63C1596.57,1534.64 1589.52,1540.81 1583.23,1547.69C1583.01,1545.81 1582.52,1543.89 1581.66,1541.88C1580.5,1539.16 1576.3,1537.68 1573.61,1538.6C1566.18,1541.15 1561.15,1546.07 1556.48,1552.23C1556.17,1552.65 1555.85,1553.09 1555.53,1553.54C1554.81,1553.51 1554.1,1553.48 1553.38,1553.46C1553.42,1551.26 1553.42,1549.05 1553.35,1546.83C1553.15,1540.4 1545.84,1537.8 1541.21,1541.8C1538.46,1544.17 1535.72,1546.53 1532.98,1548.9C1531.45,1550.21 1529.93,1551.53 1528.41,1552.84C1528.17,1553.05 1526.78,1554.24 1525.84,1555.23C1525.84,1555.19 1525.83,1555.17 1525.83,1555.13C1525.7,1553.93 1525.24,1552.55 1524.83,1551.4C1523.94,1548.88 1522.59,1546.89 1520.16,1545.66C1517.37,1544.26 1513.84,1544.42 1511.57,1546.77C1509.3,1549.13 1508.86,1551.57 1509.46,1554.72C1509.77,1556.35 1510.75,1557.59 1512.03,1558.45C1512.26,1559.35 1512.53,1560.25 1512.84,1561.13C1513.37,1562.59 1514.01,1564.07 1514.86,1565.37C1516.05,1567.18 1517.61,1568.57 1519.41,1569.47C1519.69,1570.81 1520.33,1572.1 1521.27,1573.16C1522.67,1574.73 1524.24,1576.12 1525.94,1577.34C1525.82,1580.13 1526.78,1582.93 1528.87,1585.15C1532.95,1589.48 1539.88,1590.48 1545.54,1591.08C1548.29,1591.37 1551.08,1591.42 1553.87,1591.27C1553.85,1591.32 1553.83,1591.37 1553.81,1591.43C1551.39,1597.54 1558.69,1601.78 1563.71,1599.69C1563.96,1600 1564.21,1600.3 1564.46,1600.6C1564.11,1601.15 1563.74,1601.7 1563.4,1602.25C1559.14,1609.09 1569.02,1616.81 1574.6,1610.89C1574.77,1610.71 1574.94,1610.52 1575.11,1610.33C1577.4,1611.78 1579.84,1612.91 1582.41,1613.57C1583.74,1614.54 1585.39,1614.98 1587.15,1614.56C1588.55,1618.17 1592.84,1620.6 1597.31,1618.38C1600.62,1616.73 1603.81,1614.84 1606.92,1612.78C1607.67,1615.83 1610.59,1618.26 1613.88,1618.34C1614.31,1619.91 1615.26,1621.34 1616.84,1622.32C1618.26,1623.2 1619.69,1624.04 1621.12,1624.89C1623.28,1627.25 1624.53,1630.94 1625.53,1633.56C1627.04,1637.47 1631.92,1640.73 1636.02,1637.83C1637.15,1637.03 1638.26,1636.21 1639.36,1635.39C1644.79,1638.37 1650.27,1641.26 1655.82,1644.04C1657.91,1645.55 1660.04,1646.99 1662.22,1648.38C1666.28,1650.96 1671.34,1648.33 1672.71,1644.11C1674.91,1637.34 1675.82,1630.44 1675.98,1623.49C1689.67,1597.89 1706.31,1574.01 1725.55,1552.26C1726.51,1551.17 1727.08,1550.02 1727.34,1548.87Z" style="fill:rgb(32,32,52);fill-rule:nonzero;"/>
        <path d="M1665.41,1347.68C1658.13,1312.15 1661.03,1275.7 1658.2,1239.75C1657.63,1232.48 1646.22,1232.42 1646.8,1239.75C1647.34,1246.61 1647.68,1253.49 1647.93,1260.38C1645.83,1259.67 1643.43,1260.11 1641.96,1261.75C1638.92,1259.96 1634.49,1260.58 1633.68,1264.9C1632.78,1269.73 1632.06,1274.56 1631.49,1279.4C1628.45,1277.17 1623.57,1277.52 1622.74,1282.18C1619.25,1301.63 1618.92,1321.05 1621.67,1340.5C1621.92,1342.42 1622.21,1344.34 1622.54,1346.27C1623.56,1352.04 1630.74,1351.23 1632.97,1347.02C1636.37,1348.5 1641.33,1346.52 1641.22,1341.95C1641.19,1340.95 1641.17,1339.96 1641.15,1338.96C1641.92,1342.26 1642.78,1345.55 1643.74,1348.81C1645.17,1353.66 1652.14,1353.99 1654.31,1350.33C1654.35,1350.46 1654.38,1350.58 1654.41,1350.71C1656.33,1357.85 1666.87,1354.82 1665.41,1347.68Z" style="fill:rgb(32,32,52);fill-rule:nonzero;"/>
        <path d="M1644.98,1187.98C1644.21,1187.47 1643.46,1186.96 1642.73,1186.5C1637.08,1182.9 1631.65,1182.14 1625.09,1181.69C1613.77,1180.92 1604.56,1183.9 1597.23,1190.81C1592.68,1195.53 1589.12,1200.91 1587.26,1207.94C1585.09,1216.09 1585.15,1224.5 1584.61,1232.84C1583.06,1236.63 1578.57,1237.29 1575.64,1241C1573.7,1243.46 1573.27,1246.45 1573.52,1249.52C1573.83,1253.39 1580.27,1260.84 1582.47,1263.94C1583.89,1287.6 1575.13,1327.33 1575.13,1327.33L1620.28,1353C1620.28,1353 1629.9,1306.33 1632.14,1291.87C1635.47,1291.81 1640.83,1289.59 1643.7,1287.96C1654.36,1281.86 1661.98,1254.37 1660.83,1234.79C1660.05,1221.56 1652.69,1200.12 1644.98,1187.98Z" style="fill:rgb(241,141,122);fill-rule:nonzero;"/>
        <path d="M1686.11,1219.33C1677.05,1218.56 1668,1217.69 1658.96,1216.78C1657.98,1206.03 1662.47,1192.38 1651.51,1185.25C1641.62,1178.82 1627.09,1182.07 1618.98,1189.82C1614.82,1193.8 1608.02,1205 1610.88,1211.6C1606.27,1212.69 1605.7,1220.45 1611.28,1221.17C1635.68,1224.31 1660.15,1226.92 1684.67,1229C1690.91,1229.52 1692.39,1219.86 1686.11,1219.33Z" style="fill:rgb(153,161,223);fill-rule:nonzero;"/>
        <path d="M1702.23,1355.09C1674.69,1327.58 1630.32,1321.89 1593.19,1324.65C1556.42,1327.38 1510.48,1338.63 1493.77,1375.57C1490.01,1383.9 1499.1,1391.39 1505.34,1388.71C1506.17,1389.22 1507.18,1389.62 1508.36,1389.85C1522.5,1392.62 1537.52,1390.73 1551.83,1390.11C1565.86,1389.5 1579.89,1388.77 1593.92,1387.92C1622.79,1386.16 1651.63,1383.87 1680.42,1381.11C1681.76,1381.37 1683.1,1381.64 1684.44,1381.9C1691.2,1383.22 1698.16,1376.66 1695.24,1370.02C1702.65,1370.12 1708.81,1361.66 1702.23,1355.09Z" style="fill:rgb(32,32,52);fill-rule:nonzero;"/>
        <path d="M1648.15,1182.01C1643.6,1176.78 1630.67,1174.06 1630.47,1174.02C1611.25,1170.09 1586.36,1168.23 1568.27,1177.5C1550.44,1186.63 1544.14,1212.14 1540.08,1230.05C1530.89,1270.53 1527.26,1316.73 1546.53,1354.84C1547.55,1356.86 1549.68,1357.66 1551.77,1357.52C1551.79,1357.9 1551.81,1358.27 1551.83,1358.65C1552.02,1361.49 1553.82,1363.23 1555.94,1363.86C1555.73,1366.93 1555.53,1370 1555.36,1373.07C1554.96,1380.15 1565.51,1380.34 1566.65,1373.78C1569.22,1377.37 1575.7,1377.78 1576.71,1372.34C1587.93,1311.99 1605.52,1252.94 1629.36,1196.38C1638.8,1176.48 1651.51,1185.88 1648.15,1182.01Z" style="fill:rgb(32,32,52);fill-rule:nonzero;"/>
        <path d="M1657.14,1242.47C1650.93,1243.14 1642.69,1243.48 1636.49,1244.34C1631.31,1245.06 1624.75,1245.18 1619.85,1247.14C1618.16,1247.81 1616.86,1248.78 1615.83,1249.95C1612.57,1248.82 1609.29,1247.76 1605.98,1246.81C1602.95,1245.94 1601.65,1250.66 1604.68,1251.52C1607.23,1252.25 1609.76,1253.05 1612.28,1253.89C1612.22,1254.09 1612.13,1254.27 1612.08,1254.49C1610.93,1260.31 1607.81,1268.76 1607.64,1276.09C1604.84,1274.57 1602.03,1273.04 1599.22,1271.51C1596.46,1270.01 1593.99,1274.23 1596.76,1275.73C1600.62,1277.84 1604.49,1279.94 1608.36,1282.05C1608.77,1283.39 1609.36,1284.65 1610.21,1285.76C1615.12,1292.21 1624.7,1294.94 1632.44,1293.54C1654.28,1289.6 1658.77,1265.36 1659.99,1246.96C1660.16,1244.52 1659.65,1242.21 1657.14,1242.47Z" style="fill:rgb(32,32,52);fill-rule:nonzero;"/>
        <path d="M1780.73,1490.48L1458.79,1511.79C1452.59,1512.2 1447.23,1507.51 1446.82,1501.3L1437.39,1358.96C1436.98,1352.76 1441.68,1347.39 1447.88,1346.98L1769.82,1325.67C1776.02,1325.26 1781.38,1329.96 1781.79,1336.16L1791.22,1478.5C1791.63,1484.71 1786.93,1490.07 1780.73,1490.48Z" style="fill:rgb(247,232,217);fill-rule:nonzero;"/>
        <path d="M1664.13,1672.23C1662.41,1669.76 1655.99,1667.18 1653.17,1666.08C1651.81,1665.54 1649.32,1665.71 1648.22,1666.28C1639.98,1670.53 1633.33,1674.45 1625.1,1678.72C1620.83,1680.94 1616.23,1683.53 1617.37,1689.13C1618.53,1694.8 1624.4,1696.94 1629.59,1696.48C1632.65,1696.21 1635.52,1695.17 1638.49,1694.43C1643.68,1693.15 1648.98,1693.22 1654.28,1693.4C1660.65,1693.61 1662.56,1692.55 1664.63,1686.19C1666.61,1680.1 1666.33,1675.41 1664.13,1672.23Z" style="fill:rgb(219,195,171);fill-rule:nonzero;"/>
        <path d="M1819.15,1493.38C1799.34,1555.64 1663.65,1676.62 1662.31,1676.72C1656,1677.19 1649.9,1671.73 1651.74,1665.24C1653.86,1657.79 1709.13,1541.22 1760.88,1479.43C1790.47,1444.11 1807.19,1458.08 1816.09,1463.41C1823.01,1467.56 1824.1,1477.81 1819.15,1493.38Z" style="fill:rgb(32,32,52);fill-rule:nonzero;"/>
        <path d="M1693.1,1684.89C1693.54,1681.91 1698.16,1676.76 1700.19,1674.51C1701.18,1673.43 1703.48,1672.48 1704.72,1672.5C1713.99,1672.66 1721.69,1673.22 1730.96,1673.4C1735.77,1673.5 1741.04,1673.77 1742.5,1679.3C1743.98,1684.89 1739.67,1689.42 1734.81,1691.31C1731.95,1692.42 1728.91,1692.76 1725.93,1693.41C1720.7,1694.57 1715.99,1696.98 1711.31,1699.49C1705.7,1702.5 1703.52,1702.4 1698.84,1697.62C1694.37,1693.05 1692.53,1688.71 1693.1,1684.89Z" style="fill:rgb(219,195,171);fill-rule:nonzero;"/>
        <path d="M1474.84,1593.35C1520.21,1640.37 1695.47,1688.61 1696.72,1688.1C1702.59,1685.72 1705.63,1678.13 1701.1,1673.13C1695.9,1667.39 1597.83,1578.96 1520.87,1555.01C1493.7,1546.55 1474.59,1555.56 1466.87,1562.21C1459,1568.99 1461.74,1579.78 1474.84,1593.35Z" style="fill:rgb(32,32,52);fill-rule:nonzero;"/>
        <path d="M1787.62,1382.08C1790.07,1380.24 1792.11,1377.53 1790.27,1374.57C1789.52,1373.36 1788.57,1372.71 1787.52,1372.42C1789.35,1369.95 1790.24,1366.9 1788.54,1364.81C1788.04,1362.66 1785.22,1361.06 1783.13,1363.07C1781.21,1364.91 1779.51,1366.94 1777.99,1369.11C1776.55,1371.15 1775,1373.37 1775.04,1375.96C1775.05,1376.46 1775.17,1376.91 1775.35,1377.3C1772.9,1379.5 1770.75,1382.67 1773.85,1385.13C1773.94,1385.2 1774.03,1385.25 1774.12,1385.31C1773.57,1386.2 1773.25,1387.21 1773.4,1388.4C1773.71,1391.01 1775.85,1392.6 1778.32,1393.04C1778.56,1393.08 1778.81,1393.13 1779.07,1393.17C1778.03,1393.86 1777.1,1394.67 1776.46,1395.66C1775.4,1397.29 1774.99,1399.75 1776.5,1401.26C1778,1402.77 1780.29,1402.56 1782.09,1401.79C1785.22,1400.46 1788.8,1397.59 1790.41,1394.57C1790.75,1393.94 1790.96,1393.26 1791.04,1392.58C1792.01,1392.08 1792.85,1391.4 1793.46,1390.46C1796.5,1385.7 1791.84,1383.13 1787.62,1382.08Z" style="fill:rgb(241,141,122);fill-rule:nonzero;"/>
        <path d="M1451.85,1405.44C1452.71,1404.09 1453.06,1402.38 1452.59,1400.47C1452.21,1398.93 1451.42,1397.85 1450.38,1397.1C1450.28,1395.93 1449.88,1394.76 1449.3,1393.74C1446.85,1389.4 1442.07,1386.9 1437.29,1386.27C1436.48,1386.16 1435.74,1386.52 1435.16,1387.07C1432.75,1387.45 1430.89,1389.14 1431.58,1392.4C1431.91,1393.96 1432.8,1395.23 1433.93,1396.27C1432.01,1397.23 1430.73,1399.38 1431.13,1401.55C1431.46,1403.36 1432.68,1404.47 1434.19,1405.22C1432.18,1406.3 1430.99,1408.83 1431.77,1411.03C1432.06,1411.88 1432.58,1412.56 1433.21,1413.14C1432.71,1413.52 1432.23,1413.89 1431.78,1414.25C1430.13,1415.58 1430.76,1417.85 1432.15,1419.06C1431.15,1420.95 1431.23,1422.99 1433.63,1424.53C1437.75,1427.18 1444.38,1423.98 1447.51,1421.09C1449.56,1419.19 1451.55,1415.85 1451.35,1413.03C1453.36,1410.9 1453.99,1407.74 1451.85,1405.44Z" style="fill:rgb(241,141,122);fill-rule:nonzero;"/>
        <path d="M1730.4,1404.25C1720.47,1427.56 1687.3,1426.68 1666.18,1424.24C1653.72,1422.8 1641.27,1419.5 1629.7,1414.66C1618.18,1409.83 1607.48,1403.19 1595.6,1399.19C1552.13,1384.54 1503.57,1405.25 1482.98,1445.85C1478.88,1453.94 1491.04,1461.1 1495.18,1452.98C1504.98,1433.79 1521.77,1418.64 1542.53,1412.25C1554.16,1408.66 1566.71,1407.66 1578.75,1409.64C1591.31,1411.71 1602.25,1417.27 1613.55,1422.8C1635.82,1433.7 1659.95,1439.82 1684.85,1439.38C1706.71,1439 1733.14,1433.88 1742.71,1411.44C1746.27,1403.1 1733.99,1395.82 1730.4,1404.25Z" style="fill:rgb(191,150,140);fill-rule:nonzero;"/>
        <path d="M843.022,1057.96C842.667,1056.69 842.356,1055.42 842.107,1054.13C841.648,1051.7 841.442,1049.23 841.42,1046.76C841.372,1041.26 842.373,1035.89 844.302,1030.79C849.077,1037.93 845.7,1051.07 843.022,1057.96ZM847.232,1019.48C844.873,1017.67 842.542,1018.48 841.158,1020.28C839.378,1019.98 837.548,1020.66 836.546,1022.88C831.974,1032.96 830.102,1043.68 831.826,1054.7C832.956,1061.91 836.483,1074.45 846.429,1069.13C854.77,1064.67 856.37,1051.99 856.509,1043.61C856.665,1034.24 854.969,1025.41 847.232,1019.48ZM1057.96,1044.19C1057.91,1038.69 1058.91,1033.32 1060.84,1028.22C1065.62,1035.36 1062.24,1048.5 1059.56,1055.38C1059.21,1054.12 1058.9,1052.85 1058.65,1051.56C1058.19,1049.13 1057.98,1046.66 1057.96,1044.19ZM1091.53,1095.89C1090.48,1114.23 1088.83,1132.62 1084.46,1150.5C1082.45,1158.74 1080.18,1167.51 1076.26,1175.07C1074.38,1178.7 1071.21,1183.56 1066.53,1183.61C1061.71,1183.65 1059.61,1178.54 1058.2,1174.72C1056.28,1169.51 1054.61,1164.16 1053.07,1158.75C1054.57,1157.14 1055.82,1155.2 1056.71,1152.78C1058.64,1147.53 1058.56,1141.79 1058.4,1136.28C1058.16,1128.33 1057.63,1120.39 1056.93,1112.47C1055.43,1095.68 1053.08,1078.98 1050.47,1062.33C1050.3,1061.24 1050.15,1060.13 1050,1059.01C1052.01,1065.01 1055.84,1070.37 1062.97,1066.56C1071.31,1062.1 1072.91,1049.42 1073.05,1041.04C1073.21,1031.67 1071.51,1022.84 1063.77,1016.91C1061.41,1015.1 1059.08,1015.91 1057.7,1017.71C1055.92,1017.41 1054.09,1018.09 1053.09,1020.3C1049.92,1027.29 1048.05,1034.57 1047.77,1042.05C1046.34,1033.23 1044.03,1024.59 1038.91,1017.93C1037.63,1016.26 1035.89,1015.55 1034.16,1015.51C1032.48,1010.6 1030.8,1005.69 1029.11,1000.78C1029.9,983.447 1032.9,966.365 1039.58,950.261C1041.33,944.854 1047.15,928.592 1052.46,923.7C1059.03,917.639 1067.61,917.328 1073.29,924.761C1083.83,938.542 1085.78,959.997 1087.78,976.57C1092.54,1016.13 1093.8,1056.11 1091.53,1095.89ZM1043.98,1120.86C1039.62,1101.43 1036.03,1081.84 1033.21,1062.14C1031.75,1051.98 1030.48,1041.6 1029.7,1031.16C1029.97,1031.13 1030.24,1031.1 1030.51,1031.07C1031.26,1030.99 1032.01,1030.79 1032.72,1030.5C1036.07,1038.64 1036.58,1048.33 1037.93,1056.71C1040.05,1069.85 1042.08,1083.01 1043.66,1096.24C1045.12,1108.45 1046.2,1120.71 1046.69,1133C1045.77,1128.93 1044.88,1124.88 1043.98,1120.86ZM1028.64,1155.75C1002.98,1160.46 977.003,1163.26 950.938,1164.21C944.71,1164.44 938.478,1164.56 932.245,1164.58C927.332,1164.59 919.227,1166.13 916.1,1161.32C913.675,1157.59 913.435,1152.05 912.793,1147.79C911.739,1140.79 910.762,1133.79 909.874,1126.76C906.428,1099.54 904.191,1072.17 903.054,1044.75C906.2,1044.4 909.326,1043.89 912.273,1043.57C925.271,1042.2 938.268,1040.83 951.266,1039.45C973.624,1037.09 995.982,1034.72 1018.34,1032.36C1019.03,1041.72 1020.1,1051.05 1021.36,1060.29C1024.57,1083.7 1028.85,1106.97 1034.21,1130C1036.05,1137.91 1038.03,1145.8 1040.12,1153.65C1036.35,1154.94 1031.67,1155.19 1028.64,1155.75ZM874.989,1098.46C873.941,1116.8 872.286,1135.19 867.918,1153.08C865.907,1161.31 863.643,1170.08 859.723,1177.64C857.845,1181.27 854.666,1186.13 849.994,1186.18C845.173,1186.22 843.072,1181.11 841.664,1177.29C835.296,1160.03 831.456,1141.36 827.436,1123.43C823.082,1104 819.488,1084.41 816.665,1064.71C811.375,1027.79 808.473,987.98 823.035,952.831C824.792,947.424 830.609,931.162 835.917,926.27C842.491,920.21 851.068,919.899 856.753,927.332C867.293,941.113 869.243,962.568 871.238,979.14C876.001,1018.7 877.262,1058.68 874.989,1098.46ZM1097.76,964.534C1096.02,952.624 1093.5,940.834 1088.89,929.677C1085.28,920.951 1080.05,912.127 1070.75,908.683C1061.73,905.345 1051.91,908.765 1044.97,914.909C1037.73,921.325 1034.27,930.645 1031.63,939.789C1025.01,953.974 1021.13,968.797 1019.16,983.917C1016.98,983.806 1014.7,984.798 1013.15,986.918C1009.29,992.188 1009.8,998.71 1006.72,1004.13C1005.15,1003.98 1003.56,1003.91 1001.93,1003.94C1000.9,1003.95 999.998,1004.17 999.225,1004.53C999.145,1004.49 999.067,1004.45 998.986,1004.41C995.517,1002.69 992.055,1000.96 988.612,999.199C975.775,992.621 963.127,985.583 951.316,977.277C939.477,968.952 928.42,959.093 919.737,947.456C910.593,935.201 904.108,921.204 897.766,907.355C895.426,898.803 893.087,890.251 890.748,881.699C889.706,877.893 885.58,876.569 882.317,877.466C882.296,877.373 882.271,877.28 882.25,877.186C882.207,877.002 882.137,876.847 882.083,876.675C877.101,851.901 872.688,827.001 868.412,802.096C870.142,798.664 872.154,795.316 874.529,792.083C875.924,790.184 875.473,787.532 874.529,785.596C873.712,783.918 872.894,782.24 872.077,780.562C879.27,778.749 886.531,777.116 893.653,775.276C900.59,773.484 899.269,762.406 891.944,762.654C876.034,763.191 857.473,764.449 842.965,771.641C829.998,778.07 825.624,791.542 825.595,805.193C825.559,821.9 828.552,839.057 831.234,855.509C834.153,873.407 838.007,891.129 842.667,908.653C842.825,909.245 843.045,909.767 843.305,910.237C837.84,911.079 832.613,913.778 828.434,917.479C821.191,923.895 817.73,933.215 815.085,942.359C797.453,980.146 799.287,1022.46 804.822,1062.86C808.03,1086.27 812.311,1109.54 817.668,1132.57C820.3,1143.87 823.19,1155.12 826.335,1166.3C828.731,1174.81 830.575,1185.32 836.889,1192C842.488,1197.93 850.955,1199.28 858.228,1195.61C867.032,1191.16 870.908,1181.74 874.055,1172.96C881.498,1152.2 884.34,1130.06 885.931,1108.17C887.494,1086.66 888.05,1064.99 887.553,1043.35C888.813,1043.92 890.131,1044.32 891.483,1044.61C892.671,1073.34 895.065,1102.01 898.79,1130.53C899.676,1137.32 900.621,1144.1 901.64,1150.87C902.476,1156.42 903.212,1162.23 906.113,1167.16C912.748,1178.45 927.331,1176.25 938.478,1176.09C968.492,1175.68 998.474,1172.78 1028.03,1167.57C1032.93,1166.7 1038.28,1166.07 1043.1,1164.56C1045.39,1172.92 1047.32,1182.96 1053.43,1189.43C1059.03,1195.36 1067.5,1196.71 1074.77,1193.04C1083.57,1188.59 1087.45,1179.17 1090.6,1170.39C1098.04,1149.63 1100.88,1127.49 1102.47,1105.59C1105.88,1058.71 1104.57,1011.07 1097.76,964.534Z" style="fill:rgb(23,26,41);fill-rule:nonzero;"/>
        <path d="M964.249,1004.84C971.323,1088.15 977.116,1144.11 978.096,1151.41C978.993,1158.09 986.272,1160.59 991.479,1157.59C992.479,1157.01 1008.5,1072.64 1014.34,994.555C1025.29,1099.42 1028.6,1136.05 1030.01,1143.99C1031.19,1150.62 1038.57,1152.75 1043.65,1149.5C1044.73,1148.81 1055.79,1047.81 1057.62,982.503C1058.58,916.911 1029.15,925.566 1002.17,911.655C962.545,891.231 901.348,861.747 900.898,937.324C900.868,942.413 903.27,965.687 918.834,978.706C934.529,991.833 963.39,994.726 964.249,1004.84Z" style="fill:rgb(219,195,171);fill-rule:nonzero;"/>
        <path d="M1030.07,1145.28C1032.09,1143.18 1038.44,1141.89 1041.22,1141.35C1042.57,1141.09 1044.82,1141.73 1045.73,1142.5C1052.52,1148.26 1057.91,1153.38 1064.68,1159.16C1068.2,1162.16 1071.95,1165.59 1069.9,1170.86C1067.82,1176.2 1062.05,1177.17 1057.38,1175.73C1054.62,1174.87 1052.17,1173.29 1049.59,1172C1045.06,1169.74 1040.19,1168.79 1035.29,1167.95C1029.42,1166.93 1027.85,1165.52 1027.1,1158.88C1026.38,1152.53 1027.47,1147.97 1030.07,1145.28Z" style="fill:rgb(140,100,77);fill-rule:nonzero;"/>
        <path d="M978.094,1147.57C980.205,1145.57 986.604,1144.59 989.407,1144.19C990.76,1143.99 992.984,1144.74 993.859,1145.56C1000.4,1151.64 1005.56,1157.02 1012.08,1163.13C1015.47,1166.3 1019.07,1169.9 1016.79,1175.07C1014.49,1180.3 1008.68,1180.99 1004.07,1179.32C1001.36,1178.33 998.98,1176.63 996.452,1175.21C992.022,1172.73 987.201,1171.55 982.345,1170.46C976.521,1169.16 975.021,1167.67 974.55,1161.01C974.099,1154.63 975.39,1150.13 978.094,1147.57Z" style="fill:rgb(140,100,77);fill-rule:nonzero;"/>
        <path d="M1013.09,775.198C1003.04,761.83 992.725,754.509 978.387,746.278C964.543,738.331 943.027,732.043 927.582,737.257C926.236,736.237 924.43,735.807 922.285,736.467C905.158,741.737 887.921,750.341 877.667,765.59C876.836,766.826 876.078,768.103 875.351,769.396C863.483,781.875 856.601,798.168 852.674,815.198C850.683,823.835 845.593,837.466 852.031,845.177C857.348,851.545 866.242,855.739 874.49,858.399C876.232,864.409 878.144,870.374 880.122,876.298C886.928,896.68 893.967,916.985 900.898,937.324C901.868,940.167 904.139,941.519 906.5,941.715C906.587,941.812 906.666,941.916 906.755,942.01C912.354,947.978 921.128,947.958 928.611,946.858C936.451,945.705 943.886,942.857 951.321,940.067C963.853,940.384 976.371,940.047 988.518,938.502C997.576,937.35 1006.57,934.022 1011.18,925.571C1016.41,915.964 1013.75,903.35 1012.99,893.025C1011.2,868.447 1004.97,844.907 1002.33,820.398C1008.86,816.642 1025.65,817.729 1026.99,809.901C1028.64,800.195 1018.59,782.513 1013.09,775.198Z" style="fill:rgb(194,137,81);fill-rule:nonzero;"/>
        <path d="M904.554,824.468L890.955,826.211L860.044,585.015L873.643,583.272L904.554,824.468Z" style="fill:rgb(76,72,153);fill-rule:nonzero;"/>
        <path d="M927.005,619.771L800.683,635.959C794.516,636.75 788.875,632.391 788.085,626.224L744.506,286.18C743.716,280.013 748.075,274.373 754.242,273.583L880.564,257.393C886.731,256.603 892.372,260.962 893.162,267.129L936.74,607.173C937.531,613.34 933.172,618.98 927.005,619.771Z" style="fill:rgb(247,232,217);fill-rule:nonzero;"/>
        <path d="M973.802,650.25C973.595,650.343 973.397,650.452 973.184,650.532C968.959,652.108 966.602,649.349 964.071,646.503C962.055,644.235 961.882,643.768 958.747,644.114C956.522,644.359 955.67,645.173 953.792,645.994C951.951,646.799 950.271,647.168 948.241,647.016C943.134,646.633 939.975,642.947 935.854,640.441C933.038,638.729 930.465,638.823 928.167,639.896C925.16,643.31 922.809,647.193 921.508,652.099C919.802,658.528 919.842,665.16 919.42,671.743C918.196,674.729 914.652,675.252 912.345,678.183C910.815,680.124 910.471,682.482 910.667,684.9C910.916,687.954 915.999,693.832 917.733,696.277C918.556,709.971 919.34,731.405 919.7,741.853C919.823,745.408 922.485,748.348 926.009,748.833L947.263,751.764C951.648,752.369 955.563,748.976 955.574,744.549C955.594,736.753 955.83,725.312 956.914,718.312C959.546,718.268 963.777,716.517 966.039,715.224C974.448,710.416 980.455,688.729 979.548,673.278C979.176,666.956 976.893,658.258 973.802,650.25Z" style="fill:rgb(241,141,122);fill-rule:nonzero;"/>
        <path d="M983.048,629.647C982.416,624.333 978.772,618.712 973.885,618.058C972.96,612.187 968.917,606.984 962.571,605.839C957.673,604.956 954.944,606.967 951.548,610.066C948.75,612.619 947.26,613.062 943.393,613.167C941.307,613.223 939.269,613.563 937.324,614.284C930.171,615.162 925.188,621.185 918.501,623.921C910.61,627.149 902.35,627.355 897.913,635.771C896.273,638.882 895.604,642.409 895.723,645.905C895.851,649.693 899.073,654.535 898.245,657.828C897.345,661.404 893.781,664.598 892.397,668.227C890.912,672.125 890.213,676.354 890.421,680.526C891.144,695.033 902.282,706.218 916.003,708.369C916.144,708.533 916.285,708.697 916.425,708.862C916.977,709.505 917.689,709.838 918.441,709.936C918.215,705.032 917.976,700.315 917.733,696.277C915.999,693.832 910.916,687.954 910.667,684.9C910.471,682.482 910.815,680.124 912.345,678.183C914.652,675.252 918.196,674.729 919.42,671.743C919.842,665.16 919.802,658.528 921.508,652.099C922.809,647.193 925.16,643.31 928.167,639.896C928.321,639.825 928.479,639.77 928.635,639.707C928.822,639.631 929.011,639.558 929.202,639.497C929.363,639.444 929.527,639.4 929.691,639.358C929.896,639.307 930.104,639.266 930.313,639.23C930.463,639.206 930.612,639.177 930.764,639.161C931.114,639.125 931.467,639.108 931.827,639.125C931.914,639.129 932.004,639.147 932.091,639.155C932.389,639.18 932.689,639.22 932.994,639.284C933.126,639.312 933.26,639.349 933.394,639.384C933.674,639.458 933.956,639.551 934.241,639.66C934.367,639.708 934.492,639.752 934.619,639.807C935.025,639.985 935.436,640.187 935.854,640.441C936.463,640.812 937.05,641.209 937.626,641.616C937.7,641.668 937.773,641.72 937.847,641.772C938.316,642.109 938.78,642.45 939.242,642.791C939.896,643.274 940.548,643.752 941.21,644.207L941.211,644.208C943.292,645.635 945.481,646.809 948.241,647.016C950.271,647.168 951.951,646.799 953.792,645.994C955.388,645.296 956.25,644.607 957.836,644.265C958.117,644.204 958.413,644.151 958.747,644.114C959.084,644.077 959.374,644.054 959.649,644.037C959.723,644.032 959.799,644.027 959.868,644.024C960.11,644.013 960.327,644.013 960.527,644.022C960.603,644.026 960.671,644.034 960.741,644.041C960.879,644.053 961.008,644.073 961.131,644.098C961.227,644.118 961.32,644.141 961.408,644.169C961.511,644.201 961.61,644.238 961.706,644.282C961.779,644.315 961.852,644.35 961.923,644.391C962.03,644.452 962.135,644.522 962.239,644.601C962.241,644.602 962.243,644.603 962.243,644.603L962.244,644.604C962.763,644.999 963.273,645.605 964.071,646.503C966.602,649.349 968.959,652.108 973.184,650.532C980.684,647.733 983.896,636.771 983.048,629.647Z" style="fill:rgb(120,54,41);fill-rule:nonzero;"/>
        <path d="M968.869,748.785C966.269,744.333 960.36,734.618 954.278,734.929C950.809,735.106 949.075,738.478 947.326,740.985C944.934,744.413 942.542,747.84 940.15,751.268C935.988,745.823 931.245,740.39 925.526,736.53C919.512,732.471 915.455,737.566 910.643,741.323C906.741,744.369 912.209,749.776 916.076,746.787C916.234,746.949 916.401,747.102 916.585,747.234C923.304,752.09 930.091,756.846 936.948,761.504C940.018,763.59 942.942,760.404 942.537,757.499C942.985,757.561 943.439,757.555 943.888,757.466C945.53,758.933 948.722,759.026 950.202,756.853C951.37,755.136 952.539,753.419 953.707,751.703C956.715,749.454 961.179,753.916 964.515,754.449C967.683,754.955 970.702,751.922 968.869,748.785Z" style="fill:rgb(194,137,81);fill-rule:nonzero;"/>
        <path d="M883.216,774.349C885.321,765.251 889.875,757.224 894.336,748.979C897.191,743.705 903.511,735.032 898.169,729.3C897.702,728.799 897.221,728.412 896.735,728.083C896.12,727.311 895.211,726.672 893.925,726.231C891.89,725.534 889.974,726.093 888.23,727.26C887.462,726.001 886.156,725.176 884.071,725.259C878.642,725.477 874.733,734.854 873.079,738.864C870.468,745.193 866.758,770.181 866.701,772.24C861.651,793.769 856.451,815.302 852.433,837.032C850.317,848.474 848.287,860.212 849.843,871.854C850.951,880.139 853.876,891.041 862.885,893.959C871.405,896.72 879.878,890.509 882.518,882.463C886.247,871.092 881.294,818.294 881.864,805.462C882.325,795.094 882.842,784.722 883.216,774.349Z" style="fill:rgb(241,141,122);fill-rule:nonzero;"/>
        <path d="M970.488,939.962C970.11,926.811 963.007,915.548 958.872,903.281C953.384,887.002 955.727,869.776 955.731,852.954C955.736,837.396 953.923,821.952 950.72,806.74C947.329,790.632 943.113,774.655 943.607,758.106C945.306,758.599 946.897,759.58 949.056,760.701C950.34,761.368 951.781,762.236 953.2,762.651C955.787,763.408 957.234,763.773 959.076,761.8C960.921,759.823 960.802,754.897 961.098,752.44C961.638,747.958 961.762,743.476 961.611,738.979C960.755,738.707 959.894,738.448 959.025,738.201C959.165,741.404 959.184,744.604 958.966,747.81C958.816,750.012 958.585,752.221 958.258,754.402C957.796,757.481 959.04,759.401 955.413,759.748C951.358,760.135 943.282,752.919 937.725,754.567C936.245,755.006 934.94,755.543 933.716,756.443C932.844,757.084 932.202,758.228 931.328,758.798C930.963,759.18 930.598,759.563 930.233,759.945C927.296,761.595 924.967,761.595 922.019,758.358C919.82,756.62 918.344,750.977 917.211,748.545C915.832,745.583 914.453,742.621 913.074,739.659C912.277,739.968 911.485,740.292 910.694,740.62C912.826,745.212 914.948,749.81 917.108,754.388C918.465,757.263 919.798,760.655 922.408,762.683C924.402,764.231 926.637,764.79 929.071,763.875C929.742,763.623 930.32,763.187 930.901,762.776C933.944,760.626 933.821,759.573 937.902,758.334C939.096,757.972 940.118,757.8 941.045,757.774C940.536,772.657 943.786,787.117 946.976,801.596C950.711,818.544 953.15,835.568 953.161,852.954C953.17,868.157 951.158,883.708 954.835,898.664C958.311,912.799 967.486,925.264 967.907,940.045C968.768,940.02 969.629,939.997 970.488,939.962Z" style="fill:rgb(166,114,63);fill-rule:nonzero;"/>
        <path d="M1001.68,822.004C1002.24,829.83 1007.63,851.513 1003.24,851.888C992.826,852.777 931.707,831.298 928.477,831.021C924.473,824.899 922.712,816.789 916.269,812.574C914.013,811.099 911.538,810.315 908.94,809.915C903.396,807.107 897.153,806.088 890.578,806.865C889.778,806.959 889.111,807.451 888.605,808.076C887.667,808.748 886.992,809.778 886.873,810.892C885.133,813.438 886.726,816.557 889.828,817.013C889.928,817.027 890.034,817.039 890.135,817.053C889.941,818.252 890.34,819.484 891.583,820.325C891.995,821.161 892.607,821.75 893.25,822.341C893.119,822.575 893.004,822.821 892.926,823.088C891.548,827.78 894.55,830.695 898.504,832.818C902.967,835.214 907.622,837.315 912.281,839.366C913.939,840.818 967.166,877.536 993.371,888.195C1005.05,892.943 1018.61,895.863 1029.28,887.233C1039.85,878.683 1040.3,849.685 1027.17,812.9C1026.84,811.986 1001.43,818.463 1001.68,822.004Z" style="fill:rgb(241,141,122);fill-rule:nonzero;"/>
        <path d="M828.804,324.164C812.104,324.164 798.52,337.749 798.52,354.448C798.52,371.147 812.104,384.732 828.804,384.732C845.502,384.732 859.088,371.147 859.088,354.448C859.088,337.749 845.502,324.164 828.804,324.164ZM828.804,398.871C804.309,398.871 784.381,378.943 784.381,354.448C784.381,329.953 804.309,310.025 828.804,310.025C853.298,310.025 873.226,329.953 873.226,354.448C873.226,378.943 853.298,398.871 828.804,398.871Z" style="fill:rgb(191,150,140);fill-rule:nonzero;"/>
        <path d="M854.072,489.669C837.373,489.669 823.787,503.255 823.787,519.954C823.787,536.653 837.373,550.238 854.072,550.238C870.771,550.238 884.356,536.653 884.356,519.954C884.356,503.255 870.771,489.669 854.072,489.669ZM854.072,564.376C829.577,564.376 809.648,544.449 809.648,519.954C809.648,495.459 829.577,475.531 854.072,475.531C878.567,475.531 898.494,495.459 898.494,519.954C898.494,544.449 878.567,564.376 854.072,564.376Z" style="fill:rgb(191,150,140);fill-rule:nonzero;"/>
    </g>
</svg>
