<?xml version="1.0" encoding="UTF-8" standalone="no"?>
<!DOCTYPE svg PUBLIC "-//W3C//DTD SVG 1.1//EN" "http://www.w3.org/Graphics/SVG/1.1/DTD/svg11.dtd">
<svg width="100%" height="100%" viewBox="0 0 2000 2000" version="1.1" xmlns="http://www.w3.org/2000/svg" xmlns:xlink="http://www.w3.org/1999/xlink" xml:space="preserve" xmlns:serif="http://www.serif.com/" style="fill-rule:evenodd;clip-rule:evenodd;stroke-linejoin:round;stroke-miterlimit:2;">
    <g>
        <rect x="0" y="0" width="2000" height="2000" style="fill:white;fill-rule:nonzero;"/>
        <path d="M933.749,386.978C933.749,428.245 888.068,461.698 831.717,461.698C775.366,461.698 729.684,428.245 729.684,386.978C729.684,345.712 775.366,312.259 831.717,312.259C888.068,312.259 933.749,345.712 933.749,386.978Z" style="fill:rgb(245,235,235);fill-rule:nonzero;"/>
        <path d="M716.28,498.067L751.749,429.077L788.991,429.077L716.28,498.067Z" style="fill:rgb(245,235,235);fill-rule:nonzero;"/>
        <path d="M912.728,513.643C912.728,579.667 1001.84,633.19 1111.76,633.19C1221.69,633.19 1310.8,579.667 1310.8,513.643C1310.8,447.618 1221.69,394.095 1111.76,394.095C1001.84,394.095 912.728,447.618 912.728,513.643Z" style="fill:rgb(245,235,235);fill-rule:nonzero;"/>
        <path d="M1306.91,642.77L1271.44,573.78L1234.2,573.78L1306.91,642.77Z" style="fill:rgb(245,235,235);fill-rule:nonzero;"/>
        <path d="M1451.18,1310C1451.18,1310 1494.52,1594.22 1492.29,1663.59C1491.34,1693.05 1417.16,1692.27 1417.16,1699.79C1417.16,1708.1 1465.92,1703.48 1502.96,1704.19C1539.32,1704.9 1522.67,1681.75 1522.38,1637.87C1521.73,1542.75 1544.16,1507.53 1524.21,1409.99C1511,1345.38 1524.21,1267.02 1524.21,1267.02L1451.18,1310Z" style="fill:rgb(240,185,146);fill-rule:nonzero;"/>
        <path d="M1282.36,1310C1282.36,1310 1325.71,1594.22 1323.47,1663.59C1322.52,1693.05 1248.34,1694.63 1248.34,1702.15C1248.34,1710.46 1297.11,1703.48 1334.14,1704.19C1370.5,1704.9 1353.86,1681.75 1353.56,1637.87C1352.91,1542.75 1375.35,1507.53 1355.39,1409.99C1342.18,1345.38 1355.39,1267.02 1355.39,1267.02L1282.36,1310Z" style="fill:rgb(240,185,146);fill-rule:nonzero;"/>
        <path d="M1342.56,705.806C1342.56,705.806 1391.91,699.465 1388.81,650.252L1430.48,627.198C1430.48,627.198 1412.85,703.661 1463.69,694.997C1463.69,694.997 1385.44,919.579 1342.56,705.806Z" style="fill:rgb(240,185,146);fill-rule:nonzero;"/>
        <path d="M1400.07,524.765C1400.07,524.765 1353.1,531.875 1352.43,570.447C1351.77,609.02 1335.19,608.339 1346.5,613.659C1357.8,618.979 1349.66,653.783 1370.44,654.448C1391.21,655.113 1430.91,636.509 1430.91,627.198C1430.91,617.888 1464.57,512.129 1400.07,524.765Z" style="fill:rgb(240,185,146);fill-rule:nonzero;"/>
        <path d="M1342.56,705.806C1342.56,705.806 1284.72,711.462 1227.47,802.323C1170.21,893.184 1208.55,700.414 1147.15,684.647C1069.37,664.678 1143.53,701.061 1147.15,715.764C1164.57,786.621 1133.46,904.954 1196.93,896.242C1260.41,887.528 1360.28,761.077 1360.28,761.077L1342.56,705.806Z" style="fill:rgb(240,185,146);fill-rule:nonzero;"/>
        <path d="M1164.96,697.255C1164.96,697.255 1152.72,674.258 1124.16,666.469C1095.6,658.68 1134.18,681.863 1134.18,681.863C1134.18,681.863 1110.07,678.848 1088.92,664.868C1067.78,650.89 1082.74,706.725 1145.92,708.853L1164.96,697.255Z" style="fill:rgb(240,185,146);fill-rule:nonzero;"/>
        <path d="M1354.94,704.313C1354.94,704.313 1288.32,784.517 1313.39,845.538C1341.45,913.815 1336.23,938.652 1335.78,952.84L1468.79,952.84L1486.3,694.997L1463.69,694.997L1386.55,788.353L1354.94,704.313Z" style="fill:rgb(127,54,60);fill-rule:nonzero;"/>
        <path d="M1335.78,912.485C1335.78,912.485 1216.07,1088.94 1294.11,1618.32L1376.37,1618.32C1376.37,1618.32 1387.43,1321.26 1403.13,1193.58C1403.13,1193.58 1445.47,1563.04 1453.82,1618.32L1538.84,1618.32C1538.84,1618.32 1606.23,1113.35 1471.53,912.485L1335.78,912.485Z" style="fill:rgb(247,227,158);fill-rule:nonzero;"/>
        <path d="M1469.22,694.997C1469.22,694.997 1474.87,752.836 1565.73,810.09C1656.59,867.346 1463.83,829.006 1448.06,890.41C1428.09,968.186 1464.47,894.026 1479.18,890.41C1550.03,872.984 1668.37,904.101 1659.65,840.623C1650.94,777.145 1512.24,694.997 1512.24,694.997L1469.22,694.997Z" style="fill:rgb(240,185,146);fill-rule:nonzero;"/>
        <path d="M1355.34,555.016C1353.52,563.711 1356.8,582.846 1390.68,598.142C1432.64,617.086 1382.69,655.387 1420.02,675.729C1457.36,696.073 1430.32,728.707 1475.66,729.155C1524.66,729.638 1527.76,684.601 1488.3,662.625C1457.5,645.476 1501.76,626.208 1459.04,589.496C1444.85,577.303 1465.24,562.895 1449.28,538.509C1421.67,496.323 1360.61,529.863 1355.34,555.016Z" style="fill:rgb(214,120,66);fill-rule:nonzero;"/>
        <path d="M1314.61,1674.77L1353.44,1674.77C1357.25,1674.77 1360.35,1677.77 1360.35,1681.48L1360.35,1698.56C1360.35,1702.5 1357.06,1705.7 1353,1705.7L1243.23,1705.7C1243.23,1705.7 1241.14,1698.38 1246.05,1695.67C1252.27,1692.25 1304.98,1677.43 1312.52,1675.08C1313.2,1674.87 1313.9,1674.77 1314.61,1674.77Z" style="fill:rgb(74,59,59);fill-rule:nonzero;"/>
        <path d="M1482.21,1674.77L1521.03,1674.77C1524.84,1674.77 1527.94,1677.77 1527.94,1681.48L1527.94,1698.56C1527.94,1702.5 1524.65,1705.7 1520.59,1705.7L1410.82,1705.7C1410.82,1705.7 1408.73,1698.38 1413.64,1695.67C1419.86,1692.25 1472.57,1677.43 1480.11,1675.08C1480.79,1674.87 1481.49,1674.77 1482.21,1674.77Z" style="fill:rgb(74,59,59);fill-rule:nonzero;"/>
        <path d="M872.901,782.753C872.901,782.753 885.142,759.757 913.703,751.967C942.264,744.178 903.688,767.361 903.688,767.361C903.688,767.361 927.798,764.346 948.941,750.367C970.084,736.389 955.127,792.224 891.944,794.351L872.901,782.753Z" style="fill:rgb(240,185,146);fill-rule:nonzero;"/>
        <path d="M730.118,1300.92C730.118,1300.92 719.835,1594.43 742.447,1660.05C752.049,1687.91 815.537,1686.63 818.197,1697.27C820.857,1707.91 777.04,1701.65 740.673,1701.72C699.546,1701.8 707.804,1674.99 702.544,1644.08C686.583,1550.31 674.033,1529.25 669.599,1419.3C665.166,1309.35 647.653,1281.42 647.653,1281.42L730.118,1300.92Z" style="fill:rgb(240,185,146);fill-rule:nonzero;"/>
        <path d="M566.366,1310C566.366,1310 481.296,1595.53 483.53,1664.9C484.478,1694.36 555.334,1691.18 555.339,1702.15C555.343,1710.46 506.569,1703.48 469.533,1704.19C433.173,1704.9 449.819,1681.75 450.117,1637.87C450.764,1542.75 453.19,1515.99 481.412,1409.62C509.635,1303.26 493.334,1267.02 493.334,1267.02L566.366,1310Z" style="fill:rgb(240,185,146);fill-rule:nonzero;"/>
        <path d="M413.578,1542.63L560.774,1542.63C560.774,1542.63 605.11,1305.43 618.411,1254.45C618.411,1254.45 646.09,1515.55 648.75,1532.84L795.313,1532.88C795.313,1532.88 724.818,982.667 714.177,934.783L543.926,934.783L539.936,982.667C539.936,982.667 454.811,1126.32 413.578,1542.63Z" style="fill:rgb(178,88,105);fill-rule:nonzero;"/>
        <path d="M402.062,1028.15C402.062,1028.15 425.059,1040.39 432.848,1068.95C440.637,1097.51 417.454,1058.93 417.454,1058.93C417.454,1058.93 420.469,1083.04 434.449,1104.19C448.427,1125.33 392.592,1110.37 390.464,1047.19L402.062,1028.15Z" style="fill:rgb(240,185,146);fill-rule:nonzero;"/>
        <path d="M682.677,702.735C682.677,702.735 653.262,690.286 656.366,641.073L614.689,618.018C614.689,618.018 616.523,675.226 604.377,697.95C604.377,697.95 634.504,724.94 682.677,702.735Z" style="fill:rgb(240,185,146);fill-rule:nonzero;"/>
        <path d="M647.287,508.95C647.287,508.95 692.499,522.695 693.164,561.268C693.829,599.84 710.409,599.158 699.103,604.478C687.797,609.799 695.938,644.603 675.161,645.268C654.385,645.933 614.689,627.328 614.689,618.018C614.689,608.707 582.787,496.314 647.287,508.95Z" style="fill:rgb(240,185,146);fill-rule:nonzero;"/>
        <path d="M659.644,553.049C659.644,553.049 662.304,633.74 629.938,639.061C597.574,644.381 555.011,647.485 550.577,631.967C546.143,616.449 576.568,531.323 606.8,511.816C637.032,492.308 697.33,510.042 708.414,538.417C708.414,538.417 702.207,548.172 659.644,553.049Z" style="fill:rgb(74,59,59);fill-rule:nonzero;"/>
        <path d="M587.982,887.517L570.133,887.517L419.726,1542.63L437.576,1542.63L587.982,887.517Z" style="fill:rgb(247,227,232);fill-rule:nonzero;"/>
        <path d="M641.549,887.517L623.701,887.517L473.293,1542.63L491.143,1542.63L641.549,887.517Z" style="fill:rgb(247,227,232);fill-rule:nonzero;"/>
        <path d="M695.13,887.485L687.043,922.919L663.208,1026.45L651.291,1078.27L627.456,1182.02L615.645,1233.73L544.671,1542.63L526.901,1542.63L609.686,1182.02L621.497,1130.2L645.332,1026.45L657.25,974.526L677.254,887.485L695.13,887.485Z" style="fill:rgb(247,227,232);fill-rule:nonzero;"/>
        <path d="M690.034,877.762L707.883,877.762L783.086,1532.88L765.237,1532.88L690.034,877.762Z" style="fill:rgb(247,227,232);fill-rule:nonzero;"/>
        <path d="M729.47,1532.84L711.7,1532.84L659.455,1078.27L653.496,1026.45L665.413,974.526L671.372,1026.45L729.47,1532.84Z" style="fill:rgb(247,227,232);fill-rule:nonzero;"/>
        <path d="M675.948,1532.84L658.071,1532.84L623.808,1233.73L617.85,1182.02L629.661,1130.2L635.619,1182.02L675.948,1532.84Z" style="fill:rgb(247,227,232);fill-rule:nonzero;"/>
        <path d="M485.402,950.745C479.196,814.422 553.458,684.727 553.458,684.727L702.909,684.727C702.909,684.727 761.094,849.31 749.014,946.754L485.402,950.745Z" style="fill:rgb(178,186,207);fill-rule:nonzero;"/>
        <path d="M700.163,684.766C700.163,684.766 666.365,812.329 773.721,922.369C850.629,1001.2 908.814,843.462 901.276,798.683L873.874,777.535C873.874,777.535 822.58,894.881 791.633,785.382C762.265,681.471 700.163,684.766 700.163,684.766Z" style="fill:rgb(178,186,207);fill-rule:nonzero;"/>
        <path d="M552.578,684.727C552.578,684.727 431.534,721.295 377.666,865.282C339.075,968.433 367.025,1035.86 387.641,1045.84L426.214,1039.19C426.214,1039.19 429.539,892.876 519.32,820.386C609.101,747.896 552.578,684.727 552.578,684.727Z" style="fill:rgb(178,186,207);fill-rule:nonzero;"/>
        <path d="M661.831,750.567L728.432,750.567L724.728,796.216C724.061,804.443 719.559,811.875 712.576,816.277L708.827,818.639C700.433,823.932 689.769,824.031 681.276,818.895L677.159,816.404C669.788,811.946 665.076,804.152 664.556,795.553L661.831,750.567Z" style="fill:rgb(145,157,186);fill-rule:nonzero;"/>
        <path d="M752.325,1671.44L712.104,1671.44C708.149,1671.44 704.943,1674.55 704.943,1678.4L704.943,1696.09C704.943,1700.18 708.353,1703.49 712.558,1703.49L826.285,1703.49C826.285,1703.49 828.448,1695.91 823.356,1693.1C816.918,1689.55 762.305,1674.2 754.493,1671.77C753.787,1671.54 753.067,1671.44 752.325,1671.44Z" style="fill:rgb(74,59,59);fill-rule:nonzero;"/>
        <path d="M488.666,1674.21L448.444,1674.21C444.49,1674.21 441.284,1677.33 441.284,1681.17L441.284,1698.86C441.284,1702.95 444.693,1706.26 448.899,1706.26L562.625,1706.26C562.625,1706.26 564.789,1698.68 559.697,1695.87C553.258,1692.32 498.645,1676.97 490.833,1674.54C490.127,1674.32 489.408,1674.21 488.666,1674.21Z" style="fill:rgb(74,59,59);fill-rule:nonzero;"/>
    </g>
</svg>
